<?xml version="1.0" encoding="UTF-8"?>
<svg width="25px" height="23px" viewBox="0 0 25 23" version="1.1" xmlns="http://www.w3.org/2000/svg" xmlns:xlink="http://www.w3.org/1999/xlink">
    <!-- Generator: sketchtool 55.2 (78181) - https://sketchapp.com -->
    <title>69DD59FF-C3F1-4DAE-9543-9C39B4774767@1x</title>
    <desc>Created with sketchtool.</desc>
    <g id="Page-1" stroke="none" stroke-width="1" fill="none" fill-rule="evenodd">
        <g id="Main_shop" transform="translate(-1263.000000, -29.000000)" fill="#000000" fill-rule="nonzero" stroke="#FFFFFF" stroke-width="0.5">
            <g id="ct/menu_top">
                <g id="ic/shop_inactive" transform="translate(1264.000000, 30.000000)">
                    <g id="Group-3">
                        <g id="Group-2">
                            <path d="M22.85625,5.35862069 C22.7125,5.14137931 22.496875,5.06896552 22.28125,5.06896552 L15.8125,5.06896552 C15.38125,5.06896552 15.09375,5.35862069 15.09375,5.79310345 C15.09375,6.22758621 15.38125,6.51724138 15.8125,6.51724138 L21.346875,6.51724138 L19.55,13.0344828 L5.60625,13.0344828 L4.3125,6.51724138 L10.0625,6.51724138 C10.49375,6.51724138 10.78125,6.22758621 10.78125,5.79310345 C10.78125,5.35862069 10.49375,5.06896552 10.0625,5.06896552 L4.025,5.06896552 L3.59375,2.75172414 C3.59375,2.60689655 3.521875,2.46206897 3.378125,2.38965517 L1.221875,0.217241379 C0.934375,-0.0724137931 0.503125,-0.0724137931 0.215625,0.217241379 C-0.071875,0.506896552 -0.071875,0.94137931 0.215625,1.23103448 L2.228125,3.25862069 L4.3125,13.9034483 C4.384375,14.2655172 4.671875,14.4827586 5.03125,14.4827586 L20.125,14.4827586 C20.484375,14.4827586 20.7,14.2655172 20.84375,13.9758621 L23,6.01034483 C23,5.79310345 23,5.50344828 22.85625,5.35862069 Z" id="Path"></path>
                            <path d="M8.625,15.2068966 C7.04375,15.2068966 5.75,16.5103448 5.75,18.1034483 C5.75,19.6965517 7.04375,21 8.625,21 C10.20625,21 11.5,19.6965517 11.5,18.1034483 C11.5,16.5103448 10.20625,15.2068966 8.625,15.2068966 Z M8.625,19.5517241 C7.834375,19.5517241 7.1875,18.9 7.1875,18.1034483 C7.1875,17.3068966 7.834375,16.6551724 8.625,16.6551724 C9.415625,16.6551724 10.0625,17.3068966 10.0625,18.1034483 C10.0625,18.9 9.415625,19.5517241 8.625,19.5517241 Z" id="Shape"></path>
                            <path d="M16.53125,15.2068966 C14.95,15.2068966 13.65625,16.5103448 13.65625,18.1034483 C13.65625,19.6965517 14.95,21 16.53125,21 C18.1125,21 19.40625,19.6965517 19.40625,18.1034483 C19.40625,16.5103448 18.1125,15.2068966 16.53125,15.2068966 Z M16.53125,19.5517241 C15.740625,19.5517241 15.09375,18.9 15.09375,18.1034483 C15.09375,17.3068966 15.740625,16.6551724 16.53125,16.6551724 C17.321875,16.6551724 17.96875,17.3068966 17.96875,18.1034483 C17.96875,18.9 17.321875,19.5517241 16.53125,19.5517241 Z" id="Shape"></path>
                            <path d="M10.49375,8.11034483 C10.20625,7.89310345 9.703125,7.96551724 9.4875,8.25517241 C9.271875,8.54482759 9.34375,9.05172414 9.63125,9.26896552 L12.50625,11.4413793 C12.50625,11.4413793 12.50625,11.4413793 12.578125,11.4413793 C12.578125,11.4413793 12.65,11.4413793 12.65,11.5137931 C12.65,11.5137931 12.65,11.5137931 12.721875,11.5137931 C12.721875,11.5862069 12.865625,11.5862069 12.9375,11.5862069 C12.9375,11.5862069 12.9375,11.5862069 12.9375,11.5862069 L12.9375,11.5862069 C13.009375,11.5862069 13.153125,11.5862069 13.225,11.5137931 C13.225,11.5137931 13.296875,11.5137931 13.296875,11.4413793 C13.296875,11.4413793 13.36875,11.4413793 13.36875,11.3689655 L16.24375,9.19655172 C16.53125,8.97931034 16.603125,8.47241379 16.3875,8.18275862 C16.171875,7.89310345 15.66875,7.82068966 15.38125,8.03793103 L13.65625,9.4137931 L13.65625,1.44827586 C13.65625,1.0137931 13.36875,0.724137931 12.9375,0.724137931 C12.50625,0.724137931 12.21875,1.0137931 12.21875,1.44827586 L12.21875,9.4137931 L10.49375,8.11034483 Z" id="Path"></path>
                        </g>
                    </g>
                </g>
            </g>
        </g>
    </g>
</svg>